<svg xmlns="http://www.w3.org/2000/svg" width="512" height="512" viewBox="0 0 512 512" role="img" aria-label="Aftergraph Platform team mark">
  <rect width="512" height="512" rx="92" fill="#080C14"/>
  <g transform="translate(128 82)">
    <path d="M128 24 218 76v104l-90 52-90-52V76z" fill="none" stroke="#4C8BD8" stroke-width="10" stroke-linejoin="round"/>
    <g stroke="#F5F7FA" stroke-width="6" fill="none" stroke-linejoin="round">
      <path d="M78 92 128 62l50 30v72l-50 30-50-30z"/>
      <path d="M128 62v132"/>
    </g>
    <g fill="#F5F7FA">
      <circle cx="128" cy="62" r="10"/>
      <circle cx="78" cy="92" r="10"/>
      <circle cx="178" cy="92" r="10"/>
      <circle cx="78" cy="164" r="10"/>
      <circle cx="178" cy="164" r="10"/>
      <circle cx="128" cy="194" r="10"/>
    </g>
    <path d="m128 101 27 27-27 27-27-27z" fill="#4C8BD8"/>
  </g>
  <text x="256" y="400" text-anchor="middle" fill="#F5F7FA" font-family="Inter, system-ui, sans-serif" font-size="42" font-weight="740">Platform</text>
  <text x="256" y="446" text-anchor="middle" fill="#4C8BD8" font-family="Inter, system-ui, sans-serif" font-size="18" letter-spacing="4" font-weight="600">AFTERGRAPH TEAM</text>
</svg>
